<svg id="visual" viewBox="0 0 900 600" width="900" height="600" xmlns="http://www.w3.org/2000/svg" xmlns:xlink="http://www.w3.org/1999/xlink" version="1.1"><rect x="0" y="0" width="900" height="600" fill="#FFFFFF"></rect><defs><linearGradient id="grad1_0" x1="33.3%" y1="100%" x2="100%" y2="0%"><stop offset="20%" stop-color="#ffffff" stop-opacity="1"></stop><stop offset="80%" stop-color="#ffffff" stop-opacity="1"></stop></linearGradient></defs><defs><linearGradient id="grad2_0" x1="0%" y1="100%" x2="66.7%" y2="0%"><stop offset="20%" stop-color="#ffffff" stop-opacity="1"></stop><stop offset="80%" stop-color="#ffffff" stop-opacity="1"></stop></linearGradient></defs><g transform="translate(900, 600)"><path d="M-243.4 0C-242.9 -52.8 -242.4 -105.5 -210.8 -121.7C-179.1 -137.9 -116.3 -117.5 -76 -131.6C-35.7 -145.8 -17.8 -194.6 0 -243.4L0 0Z" fill="#FBAE3C"></path></g><g transform="translate(0, 0)"><path d="M243.4 0C242.1 51.4 240.8 102.7 210.8 121.7C180.7 140.6 121.9 127.2 82 142C42.1 156.9 21 200.1 0 243.4L0 0Z" fill="#FBAE3C"></path></g></svg>