<svg id="visual" viewBox="0 0 900 600" width="900" height="600" xmlns="http://www.w3.org/2000/svg" xmlns:xlink="http://www.w3.org/1999/xlink" version="1.1"><rect x="0" y="0" width="900" height="600" fill="#FFFFFF"></rect><g fill="#c4a47c"><circle r="60" cx="58" cy="350"></circle><circle r="38" cx="354" cy="499"></circle><circle r="37" cx="462" cy="86"></circle><circle r="40" cx="646" cy="501"></circle><circle r="53" cx="57" cy="170"></circle><circle r="54" cx="873" cy="20"></circle><circle r="57" cx="49" cy="16"></circle><circle r="40" cx="195" cy="378"></circle><circle r="55" cx="870" cy="200"></circle><circle r="50" cx="875" cy="523"></circle><circle r="53" cx="211" cy="213"></circle><circle r="47" cx="502" cy="539"></circle><circle r="54" cx="279" cy="27"></circle><circle r="46" cx="611" cy="181"></circle><circle r="58" cx="656" cy="305"></circle><circle r="54" cx="9" cy="494"></circle><circle r="55" cx="136" cy="556"></circle><circle r="52" cx="732" cy="16"></circle></g></svg>