<svg id="visual" viewBox="0 0 900 600" width="900" height="600" xmlns="http://www.w3.org/2000/svg" xmlns:xlink="http://www.w3.org/1999/xlink" version="1.1"><path d="M0 145L13.7 137C27.3 129 54.7 113 82 99C109.3 85 136.7 73 163.8 82C191 91 218 121 245.2 139C272.3 157 299.7 163 327 155C354.3 147 381.7 125 409 115C436.3 105 463.7 107 491 117C518.3 127 545.7 145 573 150C600.3 155 627.7 147 654.8 137C682 127 709 115 736.2 118C763.3 121 790.7 139 818 140C845.3 141 872.7 125 886.3 117L900 109L900 0L886.3 0C872.7 0 845.3 0 818 0C790.7 0 763.3 0 736.2 0C709 0 682 0 654.8 0C627.7 0 600.3 0 573 0C545.7 0 518.3 0 491 0C463.7 0 436.3 0 409 0C381.7 0 354.3 0 327 0C299.7 0 272.3 0 245.2 0C218 0 191 0 163.8 0C136.7 0 109.3 0 82 0C54.7 0 27.3 0 13.7 0L0 0Z" fill="#ffb25d"></path><path d="M0 247L13.7 235C27.3 223 54.7 199 82 184C109.3 169 136.7 163 163.8 176C191 189 218 221 245.2 232C272.3 243 299.7 233 327 222C354.3 211 381.7 199 409 197C436.3 195 463.7 203 491 217C518.3 231 545.7 251 573 258C600.3 265 627.7 259 654.8 242C682 225 709 197 736.2 194C763.3 191 790.7 213 818 217C845.3 221 872.7 207 886.3 200L900 193L900 107L886.3 115C872.7 123 845.3 139 818 138C790.7 137 763.3 119 736.2 116C709 113 682 125 654.8 135C627.7 145 600.3 153 573 148C545.7 143 518.3 125 491 115C463.7 105 436.3 103 409 113C381.7 123 354.3 145 327 153C299.7 161 272.3 155 245.2 137C218 119 191 89 163.8 80C136.7 71 109.3 83 82 97C54.7 111 27.3 127 13.7 135L0 143Z" fill="#ffa039"></path><path d="M0 433L13.7 406C27.3 379 54.7 325 82 297C109.3 269 136.7 267 163.8 301C191 335 218 405 245.2 434C272.3 463 299.7 451 327 439C354.3 427 381.7 415 409 405C436.3 395 463.7 387 491 381C518.3 375 545.7 371 573 365C600.3 359 627.7 351 654.8 334C682 317 709 291 736.2 296C763.3 301 790.7 337 818 344C845.3 351 872.7 329 886.3 318L900 307L900 191L886.3 198C872.7 205 845.3 219 818 215C790.7 211 763.3 189 736.2 192C709 195 682 223 654.8 240C627.7 257 600.3 263 573 256C545.7 249 518.3 229 491 215C463.7 201 436.3 193 409 195C381.7 197 354.3 209 327 220C299.7 231 272.3 241 245.2 230C218 219 191 187 163.8 174C136.7 161 109.3 167 82 182C54.7 197 27.3 221 13.7 233L0 245Z" fill="#ff8c00"></path><path d="M0 505L13.7 509C27.3 513 54.7 521 82 524C109.3 527 136.7 525 163.8 528C191 531 218 539 245.2 545C272.3 551 299.7 555 327 547C354.3 539 381.7 519 409 513C436.3 507 463.7 515 491 526C518.3 537 545.7 551 573 550C600.3 549 627.7 533 654.8 527C682 521 709 525 736.2 531C763.3 537 790.7 545 818 544C845.3 543 872.7 533 886.3 528L900 523L900 305L886.3 316C872.7 327 845.3 349 818 342C790.7 335 763.3 299 736.2 294C709 289 682 315 654.8 332C627.7 349 600.3 357 573 363C545.7 369 518.3 373 491 379C463.7 385 436.3 393 409 403C381.7 413 354.3 425 327 437C299.7 449 272.3 461 245.2 432C218 403 191 333 163.8 299C136.7 265 109.3 267 82 295C54.7 323 27.3 377 13.7 404L0 431Z" fill="#dc7903"></path><path d="M0 601L13.7 601C27.3 601 54.7 601 82 601C109.3 601 136.7 601 163.8 601C191 601 218 601 245.2 601C272.3 601 299.7 601 327 601C354.3 601 381.7 601 409 601C436.3 601 463.7 601 491 601C518.3 601 545.7 601 573 601C600.3 601 627.7 601 654.8 601C682 601 709 601 736.2 601C763.3 601 790.7 601 818 601C845.3 601 872.7 601 886.3 601L900 601L900 521L886.3 526C872.7 531 845.3 541 818 542C790.7 543 763.3 535 736.2 529C709 523 682 519 654.8 525C627.7 531 600.3 547 573 548C545.7 549 518.3 535 491 524C463.7 513 436.3 505 409 511C381.7 517 354.3 537 327 545C299.7 553 272.3 549 245.2 543C218 537 191 529 163.8 526C136.7 523 109.3 525 82 522C54.7 519 27.3 511 13.7 507L0 503Z" fill="#ba6705"></path></svg>